<svg width="32" height="42" viewBox="0 0 32 42" fill="none" xmlns="http://www.w3.org/2000/svg">
<path d="M9.98418 2.55049C9.51797 1.06231 8.28887 0.270211 7.11426 0.694262L1.78613 2.61449C0.732617 2.99854 0 4.26269 0 5.70286C0 25.4972 12.1457 41.5472 27.125 41.5472C28.2148 41.5472 29.1715 40.5791 29.4621 39.1869L30.9152 32.146C31.2361 30.5939 30.6367 28.9697 29.5105 28.3536L23.698 25.1532C22.7111 24.6091 21.5668 24.9852 20.8947 26.0813L18.4486 30.0258C14.1861 27.3615 10.735 22.8009 8.71875 17.1682L11.7037 13.9439C12.5332 13.0477 12.8178 11.5436 12.4061 10.2394L9.98418 2.55849V2.55049Z" fill="white"/>
</svg>
