<svg width="40" height="50" viewBox="0 0 40 50" fill="none" xmlns="http://www.w3.org/2000/svg">
<g clip-path="url(#clip0_4_2)">
<path d="M22.4688 48.75C27.8125 42.4805 40 27.2852 40 18.75C40 8.39844 31.0417 0 20 0C8.95833 0 0 8.39844 0 18.75C0 27.2852 12.1875 42.4805 17.5312 48.75C18.8125 50.2441 21.1875 50.2441 22.4688 48.75ZM20 12.5C21.7681 12.5 23.4638 13.1585 24.714 14.3306C25.9643 15.5027 26.6667 17.0924 26.6667 18.75C26.6667 20.4076 25.9643 21.9973 24.714 23.1694C23.4638 24.3415 21.7681 25 20 25C18.2319 25 16.5362 24.3415 15.286 23.1694C14.0357 21.9973 13.3333 20.4076 13.3333 18.75C13.3333 17.0924 14.0357 15.5027 15.286 14.3306C16.5362 13.1585 18.2319 12.5 20 12.5Z" fill="white"/>
</g>
<defs>
<clipPath id="clip0_4_2">
<rect width="40" height="50" fill="white"/>
</clipPath>
</defs>
</svg>
